<svg height="467pt" viewBox="-60 0 467 467.00061" width="467pt" xmlns="http://www.w3.org/2000/svg"><path d="m232.601562 404.199219c5.523438 0 10-4.476563 10-10v-199c0-5.523438-4.476562-10-10-10-5.523437 0-10 4.476562-10 10v199c0 5.523437 4.476563 10 10 10zm0 0"/><path d="m113.800781 404.199219c5.523438 0 10-4.476563 10-10v-199c0-5.523438-4.476562-10-10-10-5.523437 0-10 4.476562-10 10v199c0 5.523437 4.476563 10 10 10zm0 0"/><path d="m306.398438 52.800781h-48.796876v-12.800781c-.027343-22.082031-17.921874-39.9765625-40-40h-88.800781c-22.082031.0234375-39.976562 17.917969-40 40v12.800781h-48.800781c-22.082031.023438-39.9765625 17.917969-40 40v56c0 5.523438 4.476562 10 10 10h18.601562v255.199219c0 14.5625 5.136719 27.984375 14.464844 37.800781 9.234375 9.761719 22.097656 15.265625 35.535156 15.199219h189.199219c13.4375.066406 26.300781-5.4375 35.53125-15.199219 9.332031-9.8125 14.46875-23.238281 14.46875-37.800781v-255.199219h18.597657c5.523437 0 10-4.476562 10-10v-56c-.023438-22.082031-17.917969-39.976562-40-40zm-197.597657-12.800781c.011719-11.039062 8.960938-19.988281 20-20h88.800781c11.039063.011719 19.984376 8.960938 20 20v12.800781h-128.800781zm189 374c0 18.8125-12.902343 33-30 33h-189.199219c-17.101562 0-30-14.1875-30-33v-255.199219h249.199219zm28.597657-275.199219h-306.398438v-46c.011719-11.042969 8.960938-19.988281 20-20h266.398438c11.042968.011719 19.988281 8.957031 20 20zm0 0"/></svg>